<?xml version="1.0" encoding="UTF-8"?>
<svg xmlns="http://www.w3.org/2000/svg" width="720" height="360" viewBox="0 0 720 360">
<rect width="100%" height="100%" fill="#ffffff"/>
<style>text { font-family: ui-sans-serif, system-ui, sans-serif; fill: #1f2937; }.title { font-size: 18px; font-weight: 700; }.subtitle { font-size: 12px; fill: #4b5563; }.label { font-size: 13px; }.value { font-size: 12px; fill: #374151; }.axis { stroke: #9ca3af; stroke-width: 1; }.tick { stroke: #d1d5db; stroke-width: 1; }.tick-label { font-size: 11px; fill: #6b7280; }</style>
<text class="title" x="170" y="28">case 1: Pattern `(p(erl|ython|hp)|ruby)`</text>
<text class="subtitle" x="170" y="46">Lower is better (log scale)</text>
<line class="axis" x1="170" y1="316" x2="653" y2="316"/>
<line class="axis" x1="170" y1="56" x2="170" y2="316"/>
<line class="tick" x1="170.0" y1="56" x2="170.0" y2="316"/>
<text class="tick-label" x="170.0" y="334" text-anchor="middle">16.6 ns</text>
<line class="tick" x1="290.8" y1="56" x2="290.8" y2="316"/>
<text class="tick-label" x="290.8" y="334" text-anchor="middle">64.2 ns</text>
<line class="tick" x1="411.5" y1="56" x2="411.5" y2="316"/>
<text class="tick-label" x="411.5" y="334" text-anchor="middle">248.8 ns</text>
<line class="tick" x1="532.2" y1="56" x2="532.2" y2="316"/>
<text class="tick-label" x="532.2" y="334" text-anchor="middle">964.4 ns</text>
<line class="tick" x1="653.0" y1="56" x2="653.0" y2="316"/>
<text class="tick-label" x="653.0" y="334" text-anchor="middle">3.74 µs</text>
<rect x="170.0" y="56.0" width="2.0" height="51.5" fill="#4c78a8" rx="4"/>
<text class="label" x="160" y="85.75" text-anchor="end">rustegex DFA</text>
<text class="value" x="180.0" y="85.75">16.6 ns</text>
<rect x="170.0" y="125.5" width="71.8" height="51.5" fill="#59a14f" rx="4"/>
<text class="label" x="160" y="155.25" text-anchor="end">rustegex VM</text>
<text class="value" x="249.8" y="155.25">37.1 ns</text>
<rect x="170.0" y="195.0" width="483.0" height="51.5" fill="#f28e2b" rx="4"/>
<text class="label" x="160" y="224.75" text-anchor="end">rustegex Derivative</text>
<text class="value" x="661.0" y="224.75">3.74 µs</text>
<rect x="170.0" y="264.5" width="150.2" height="51.5" fill="#b279a2" rx="4"/>
<text class="label" x="160" y="294.25" text-anchor="end">regex crate</text>
<text class="value" x="328.2" y="294.25">89.3 ns</text>
</svg>