<?xml version="1.0" encoding="UTF-8"?>
<svg xmlns="http://www.w3.org/2000/svg" width="720" height="360" viewBox="0 0 720 360">
<rect width="100%" height="100%" fill="#ffffff"/>
<style>text { font-family: ui-sans-serif, system-ui, sans-serif; fill: #1f2937; }.title { font-size: 18px; font-weight: 700; }.subtitle { font-size: 12px; fill: #4b5563; }.label { font-size: 13px; }.value { font-size: 12px; fill: #374151; }.axis { stroke: #9ca3af; stroke-width: 1; }.tick { stroke: #d1d5db; stroke-width: 1; }.tick-label { font-size: 11px; fill: #6b7280; }</style>
<text class="title" x="16" y="28">case long: Pattern `a+b`, input is 1,000,000 `a` characters</text>
<text class="subtitle" x="16" y="46">Lower is better (log scale)</text>
<line class="axis" x1="170" y1="316" x2="646" y2="316"/>
<line class="axis" x1="170" y1="56" x2="170" y2="316"/>
<line class="tick" x1="170.0" y1="56" x2="170.0" y2="316"/>
<text class="tick-label" x="170.0" y="334" text-anchor="middle">59.15 µs</text>
<line class="tick" x1="289.0" y1="56" x2="289.0" y2="316"/>
<text class="tick-label" x="289.0" y="334" text-anchor="middle">216.44 µs</text>
<line class="tick" x1="408.0" y1="56" x2="408.0" y2="316"/>
<text class="tick-label" x="408.0" y="334" text-anchor="middle">791.99 µs</text>
<line class="tick" x1="527.0" y1="56" x2="527.0" y2="316"/>
<text class="tick-label" x="527.0" y="334" text-anchor="middle">2.90 ms</text>
<line class="tick" x1="646.0" y1="56" x2="646.0" y2="316"/>
<text class="tick-label" x="646.0" y="334" text-anchor="middle">10.60 ms</text>
<rect x="170.0" y="56.0" width="2.0" height="51.5" fill="#4c78a8" rx="4"/>
<text class="label" x="160" y="85.75" text-anchor="end">rustegex DFA</text>
<text class="value" x="180.0" y="85.75">59.15 µs</text>
<rect x="170.0" y="125.5" width="342.9" height="51.5" fill="#59a14f" rx="4"/>
<text class="label" x="160" y="155.25" text-anchor="end">rustegex VM</text>
<text class="value" x="520.9" y="155.25">2.49 ms</text>
<rect x="170.0" y="195.0" width="476.0" height="51.5" fill="#f28e2b" rx="4"/>
<text class="label" x="160" y="224.75" text-anchor="end">(rustegex Derivative)</text>
<text class="value" x="654.0" y="224.75">10.60 ms</text>
<rect x="170.0" y="264.5" width="273.6" height="51.5" fill="#b279a2" rx="4"/>
<text class="label" x="160" y="294.25" text-anchor="end">regex crate</text>
<text class="value" x="451.6" y="294.25">1.17 ms</text>
</svg>